<?xml version="1.0" encoding="utf-8"?>
<!-- Generator: Adobe Illustrator 18.1.0, SVG Export Plug-In . SVG Version: 6.00 Build 0)  -->
<svg version="1.1" id="pestcontrol" xmlns="http://www.w3.org/2000/svg" xmlns:xlink="http://www.w3.org/1999/xlink" x="0px" y="0px"
	 viewBox="0 0 292.6 292.6" enable-background="new 0 0 292.6 292.6" xml:space="preserve">
<g>
	<circle fill="#551813" cx="146.3" cy="146.3" r="146.3"/>
	<g>
		<path fill="#FFFFFF" d="M154.9,188.3c1.1-2,1.2-7.2,0.9-13.5l-58.1-58.1c-17.7,12.6-26.9,27.9-22,44.9
			c6.4,22.6,34.6,34.2,67.2,13.1c1,3.3,1.7,6.1,2,7.9c1.2,7.4-26.5,21-30.3,25.6c-3.8,4.6-4.4,23.6,0.4,21.8
			c4.8-1.8,5.9-15.5,7.3-20C123.9,205.6,151.3,195.2,154.9,188.3z"/>
		<path fill="#FFFFFF" d="M169.3,151c0.1-0.1,0.2-0.2,0.3-0.4c0.2-0.2,0.3-0.3,0.5-0.5c8.6,3.5,21,2.7,21,2.7s-1.3,9.3-1.8,18.1
			l7.2,7.2c3.8-10,6.5-26.1,4.1-30.7c-1.6-3.1-9.3-7-16.8-10.1c2.1-1.6,4.1-3,6.1-4.3c7,3.7,18.8,2.7,18.8,2.7s-3.7,29.6,0.9,27.1
			c4.5-2.5,9.6-26.4,6.8-31.6c-1.2-2.2-6.3-4.9-11.7-7.2c7.9-4.9,13.1-9.5,12.3-18.1c-1.9-21.2-46.4-21.4-85-6.8
			c-3.5,1.3-6.9,2.7-10.2,4.2L169.3,151z"/>
		<path fill="#FFFFFF" d="M155.8,174.8c1.5,5,2.8,9.4,3.2,11.9c1.2,7.4-26.5,21-30.3,25.6c-3.8,4.6-4.4,23.6,0.4,21.8
			c4.8-1.8,5.9-15.5,7.3-20c1.4-4.5,28.8-14.9,32.5-21.7c0.4-0.8,0.7-2,0.8-3.5L155.8,174.8z"/>
	</g>
	
		<rect x="140" y="31.2" transform="matrix(0.7071 -0.7071 0.7071 0.7071 -60.6615 145.9604)" fill="#FFFFFF" width="11.7" height="230.1"/>
</g>
</svg>
