<?xml version="1.0" encoding="utf-8"?>
<!-- Generator: Adobe Illustrator 18.1.0, SVG Export Plug-In . SVG Version: 6.00 Build 0)  -->
<svg version="1.1" id="vaccination" xmlns="http://www.w3.org/2000/svg" xmlns:xlink="http://www.w3.org/1999/xlink" x="0px" y="0px"
	 viewBox="0 0 300 300" enable-background="new 0 0 300 300" xml:space="preserve">
<g>
	<circle fill="#93994B" cx="150" cy="150" r="150"/>
	<path fill="#FFFFFF" d="M210.9,50.5l-7,7l14.7,14.7l-17.7,17.7L186.9,76l-90.3,90.3l3.9,3.9l-6.2,23.2l2.4,2.4l-46.4,46.9
		c1,2.6,1.9,5.2,2.7,8.1l49.2-49.5l1.5,1.5l23.2-6.3l4.6,4.6l90.3-90.3l-14.7-14.7l17.7-17.7l15.5,15.5l7-7L210.9,50.5z
		 M121.3,178.7L106.6,164l3.1-3.1l14.7,14.7L121.3,178.7z M133.7,166.4L119,151.7l3.1-3.1l14.7,14.7L133.7,166.4z M146,154
		l-14.7-14.7l3.1-3.1l14.7,14.7L146,154z M158.4,141.7L143.7,127l3.1-3.1l14.7,14.7L158.4,141.7z M154.5,120.8l33.2-33.2l7.7,7.7
		l-33.2,33.2L154.5,120.8z M210.9,110.8l-33.2,33.2l-9.2-9.2l33.2-33.3L210.9,110.8z"/>
</g>
</svg>
