<?xml version="1.0" encoding="utf-8"?>
<!-- Generator: Adobe Illustrator 18.1.0, SVG Export Plug-In . SVG Version: 6.00 Build 0)  -->
<svg version="1.1" id="exoticpets" xmlns="http://www.w3.org/2000/svg" xmlns:xlink="http://www.w3.org/1999/xlink" x="0px" y="0px"
	 viewBox="0 0 292.6 292.6" enable-background="new 0 0 292.6 292.6" xml:space="preserve">
<g>
	<circle fill="#F6AA34" cx="146.3" cy="146.3" r="146.3"/>
	<path fill="#FFFFFF" d="M130.1,68.7c0.7,0.5,1.5,0.9,2.2,1.3c5.8,3.1,12.4,4.5,18.9,4.9c7,0.4,14.2-0.3,21.1-1.8
		c4.8-1,10.4-2.6,14.8-4.8c2.7-1.3,5.5-2.6,8.2-4.1c2.1-1.2,4-2.6,5.3-4.7c2.1-3.5,1.5-8,0.7-11.8c-1-4.8-7.7-7.7-11.7-9.3
		c-6.7-2.5-14.1-4.2-21.1-5.6c-6.4-1.2-12.9-2.2-19.4-2.8c-2.5-0.2-5.1-0.5-7.7-0.5c-1.7-0.1-3.6-0.1-5.3,0.1
		c-12.7,1.6-23.9,6.8-32.3,16.6c-13.3,15.5-16.4,38.2-14.2,57.8c1.4,12.3,4.9,24.9,10.5,35.9c4.7,9.1,11.6,18.2,20.6,23.5
		c36.3,0,72.5,0,108.8,0c4.8,0,8.9-2.1,11.8-5.9c2.8-3.9,3.6-8.4,2.2-13c-2.3-7.4-8.9-13.4-18.1-13.4H154c-2.9,0-5.8-0.6-8.4-1.8
		c-9.4-4.1-15.4-14.6-18.5-24c-2.4-7.3-3.8-16-2.9-23.7C124.7,77.4,126.2,71.4,130.1,68.7L130.1,68.7z M84.4,206.1
		c-9.9,9-11.7,23.5-10.2,37.3c0.4,3.4,1.6,8.1,5.4,9.1c3.9,1,7.3-2.5,9.4-5.3c3.4-4.6,6.8-9.3,10.2-13.9c3.2-4.2,6.5-8.2,10.3-11.9
		c9-8.7,18.9-13.2,30.7-15.4H84.4L84.4,206.1z M94.5,146.6c3.5,6.1,7.8,12,12.9,16.9H95.2c-1.8,0-3.2,1.5-3.2,3.2
		c0,1.8,1.5,3.2,3.2,3.2h133.4c4.1,0,7.8,1.7,10.5,4.4c2.7,2.7,4.4,6.4,4.4,10.5l0,0c0,4.1-1.7,7.8-4.4,10.5
		c-2.7,2.7-6.4,4.4-10.5,4.4H92.8c-5.3,0-9.9-0.9-13.8-2.6c-5.3-2.2-9.3-5.6-12.1-9.7c-2.7-4-4.1-8.7-4.1-13.4c0-3,0.6-6,1.8-8.9
		c2.2-5.3,6.6-9.8,13.2-13.2C82.3,149.5,87.9,147.7,94.5,146.6z M152.8,45c0-1.9,2.6-3.5,5.8-3.5c3.2,0,5.8,1.6,5.8,3.5
		c0,1.9-2.6,3.5-5.8,3.5C155.4,48.4,152.8,46.9,152.8,45z"/>
</g>
</svg>
