<?xml version="1.0" encoding="utf-8"?>
<!-- Generator: Adobe Illustrator 18.1.0, SVG Export Plug-In . SVG Version: 6.00 Build 0)  -->
<svg version="1.1" id="nutrition" xmlns="http://www.w3.org/2000/svg" xmlns:xlink="http://www.w3.org/1999/xlink" x="0px" y="0px"
	 viewBox="0 0 292.6 292.6" enable-background="new 0 0 292.6 292.6" xml:space="preserve">
<g>
	<circle fill="#DE7126" cx="146.3" cy="146.3" r="146.3"/>
	<path fill="#FFFFFF" d="M252,174.2c-28.4,10.9-65.4,17.5-105.7,17.5S69,185.1,40.6,174.2C32,171,27.4,161.9,29.7,153
		c0.1-0.6,0.3-1.1,0.4-1.7c15.2,7.8,33.2,14,52.9,18.1c19.8,4.2,41.3,6.5,63.3,6.5c22.1,0,43.6-2.3,63.5-6.5
		c19.6-4.2,37.5-10.3,52.6-18.1c0.2,0.6,0.3,1.1,0.4,1.7C265.2,161.9,260.5,171,252,174.2L252,174.2z M31.3,147
		c0.1,0,0.3,0.1,0.4,0.2c14.9,7.8,32.7,13.8,52.2,18c19.5,4.1,40.7,6.3,62.4,6.3c21.8,0,43-2.2,62.6-6.4
		c19.5-4.2,37.4-10.3,52.3-18.1l0.1,0c-2.6-8.9-5.8-17.5-9.5-25.6c-6.4-14.3-18.7-23.5-34.1-25.8c-22.1-3.3-46.1-5.1-71.3-5.1
		c-25.2,0-49.3,1.8-71.3,5.1c-15.5,2.3-27.7,11.5-34.1,25.8C37.1,129.5,34,138.1,31.3,147L31.3,147z M223.3,106.1
		c3,1.1,5.3,2.3,6.9,3.6c2.2,1.8,3.4,3.8,3.4,6c0,6.1-10.5,11-27.5,14.1c-15.3,2.7-36.5,4.4-59.8,4.4c-23.3,0-44.5-1.7-59.8-4.4
		c-17-3-27.5-7.9-27.5-14.1c0-2.3,1.2-4.4,3.6-6.2c1.7-1.3,4.2-2.6,7.4-3.7c1.9-0.7,3.9,0.3,4.6,2.1c0.7,1.9-0.3,3.9-2.1,4.6
		c-2.5,0.9-4.3,1.8-5.5,2.7c-0.5,0.4-0.8,0.5-0.8,0.6c0,2.1,8.2,4.6,21.6,7c15,2.7,35.7,4.3,58.6,4.3c22.9,0,43.6-1.6,58.6-4.3
		c13.3-2.4,21.6-4.9,21.6-7c0,0-0.2-0.1-0.7-0.5c-1-0.8-2.7-1.7-5-2.5c-1.8-0.7-2.8-2.8-2.1-4.6
		C219.4,106.4,221.5,105.4,223.3,106.1z"/>
</g>
</svg>
