<?xml version="1.0" encoding="utf-8"?>
<!-- Generator: Adobe Illustrator 18.1.0, SVG Export Plug-In . SVG Version: 6.00 Build 0)  -->
<svg version="1.1" id="grooming" xmlns="http://www.w3.org/2000/svg" xmlns:xlink="http://www.w3.org/1999/xlink" x="0px" y="0px"
	 viewBox="0 0 292.6 292.6" enable-background="new 0 0 292.6 292.6" xml:space="preserve">
<circle fill="#816C51" cx="146.3" cy="146.3" r="146.3"/>
<path fill="#FFFFFF" d="M270.6,165.4c-3.4-7.4-9.6-15.8-18.1-24c-4.7-4.6-10.1-9.2-16.1-13.6c-14.1-10.4-28.9-17.8-41.4-21.4
	c-13.4-3.9-24.6-3.4-30.5,2.4l-17,14.8c-2.7,0-5.3,0.2-8,0.7c-4.3,0.7-8.2-0.2-11.8-2.7c-4.6-3.3-9.2-6.6-13.7-10
	c-2.8-2.1-5.5-4.2-8.3-6.2c-7-5.2-14.1-10.3-21.4-15.1c-6.5-4.3-13.3-8.5-20.3-12c-5.4-2.7-11.6-5.4-17.6-6.6
	c-4.6-0.9-9.7-1-13.7,1.7c-1.3,0.9-2.5,2-3.4,3.4c-0.9,1.4-1.5,2.8-1.9,4.5c-1.6,8.4,6.1,17.3,11.6,22.7c4.2,4.1,8.9,7.9,13.6,11.5
	c5.2,3.9,10.6,7.6,16.1,11.1c13.3,8.6,27,16.2,40.9,23.8c3.9,2.2,6.5,5.4,7.7,9.7c2.7,9.7,8.5,19,14.8,26.8
	c8,9.7,17.7,18.3,28.2,25.3c14.7,9.9,33,18.3,50.8,20.2c12.4,1.4,27.7-0.2,35.4-11.5c1.6-2.3,3.2-4.6,4.7-7l3.1-5l15.1-20.7
	c0,0,0.1-0.1,0.1-0.1c0.4-0.4,0.8-0.9,1.2-1.5l-0.1-0.1l0,0l0.1,0.1c0-0.1,0.1-0.1,0.1-0.2C274.8,181,274.4,173.6,270.6,165.4z
	 M247.7,171.3c2.1,1.2,3.2,3.2,2.5,4.5c-0.7,1.3-3,1.4-5.1,0.3c-2.1-1.2-3.2-3.2-2.5-4.5C243.3,170.3,245.6,170.2,247.7,171.3z
	 M236.4,146.7c0.7-1.3,3-1.5,5.1-0.3c2.1,1.2,3.2,3.2,2.5,4.5c-0.7,1.3-3,1.4-5.1,0.3C236.8,150,235.6,148,236.4,146.7z
	 M235.5,158.5c0.7-1.3,3-1.4,5.1-0.3c2.1,1.2,3.2,3.2,2.5,4.5c-0.7,1.3-3,1.4-5.1,0.3C235.9,161.9,234.8,159.9,235.5,158.5z
	 M234.3,171.3c-0.7,1.3-3,1.4-5.1,0.3c-2.1-1.2-3.2-3.2-2.5-4.5c0.7-1.3,3-1.4,5.1-0.3C233.9,167.9,235,169.9,234.3,171.3z
	 M221.5,148.9c0.7-1.3,3-1.4,5.1-0.3c2.1,1.2,3.2,3.2,2.5,4.5c-0.7,1.3-3,1.4-5.1,0.3C221.9,152.2,220.8,150.2,221.5,148.9z
	 M144.2,137.6l16.4-14.2c0.2,0.9,0.4,1.9,0.7,2.9l-17.8,16.4C143.6,140.9,143.8,139.2,144.2,137.6z M144.1,149.3l19.3-17.8
	c1.2,2.6,2.7,5.3,4.6,8l-20.7,19.6C145.9,156.1,144.8,152.7,144.1,149.3z M158.8,176.7c-3.3-3.8-6.2-7.8-8.7-12
	c-0.1-0.2-0.2-0.4-0.4-0.6l21.3-20.2c2.6,3.3,5.6,6.8,9,10.2L158.8,176.7z M162.5,180.6l21.4-22.8c4,3.7,8.4,7.4,13.2,11l-19.1,24.8
	C172.5,189.8,167.2,185.5,162.5,180.6z M182.4,196.6l19-24.7c6.1,4.2,12.2,7.9,18.2,10.9l-17,24
	C195.5,204.1,188.7,200.6,182.4,196.6z M218.5,211.5c-3.6-0.7-7.1-1.7-10.6-2.8l16.7-23.5c3.6,1.6,7.1,3,10.5,4.2l-15.4,22.4
	C219.2,211.7,218.8,211.6,218.5,211.5z M225.4,212.6l14.9-21.6c2.2,0.6,4.3,1.1,6.4,1.4l-14.4,20.7C230,213,227.7,212.9,225.4,212.6
	z M241.4,212.5c-0.8,0.1-1.7,0.2-2.6,0.3l13.9-19.8c0.9,0,1.8,0,2.6,0L241.4,212.5z M251.6,162.1c-2.1-1.2-3.2-3.2-2.5-4.5
	c0.7-1.3,3-1.4,5.1-0.3c2.1,1.2,3.2,3.2,2.5,4.5C256,163.1,253.7,163.2,251.6,162.1z M264.2,175.8c-0.7,1.3-3,1.4-5.1,0.3
	c-2.1-1.2-3.2-3.2-2.5-4.5c0.7-1.3,3-1.4,5.1-0.3C263.8,172.5,264.9,174.5,264.2,175.8z"/>
</svg>
