<?xml version="1.0" encoding="utf-8"?>
<!-- Generator: Adobe Illustrator 18.1.0, SVG Export Plug-In . SVG Version: 6.00 Build 0)  -->
<svg version="1.1" id="health" xmlns="http://www.w3.org/2000/svg" xmlns:xlink="http://www.w3.org/1999/xlink" x="0px" y="0px"
	 viewBox="0 0 292.6 292.6" enable-background="new 0 0 292.6 292.6" xml:space="preserve">
<g>
	<circle fill="#C93A27" cx="146.3" cy="146.3" r="146.3"/>
	<path fill="#FFFFFF" d="M195.5,70c35.8,10.8,44.2,48.7,32.5,82.6c-12.5,36.2-46.8,69.1-70.3,86.8c-28.3-8.1-72.1-26.5-96.7-55.9
		c-23-27.5-28.8-65.8,0.8-88.7c26.5-20.5,51-8.6,71.2,11.2C144.7,80.2,163.4,60.3,195.5,70z M159.3,113.2h-35.5V137
		c0,2.4-2,4.4-4.4,4.4H95.6v35.5h23.8c2.4,0,4.4,2,4.4,4.4v23.8h35.5v-23.8c0-2.4,2-4.4,4.4-4.4h23.8v-35.5h-23.8
		c-2.4,0-4.4-2-4.4-4.4V113.2z"/>
</g>
</svg>
