<?xml version="1.0" encoding="utf-8"?>
<!-- Generator: Adobe Illustrator 20.1.0, SVG Export Plug-In . SVG Version: 6.00 Build 0)  -->
<svg version="1.1" id="Layer_1" xmlns="http://www.w3.org/2000/svg" xmlns:xlink="http://www.w3.org/1999/xlink" x="0px" y="0px"
	 viewBox="0 0 491.5 426.4" style="enable-background:new 0 0 491.5 426.4;" xml:space="preserve">
<style type="text/css">
	.st0{opacity:0.7;}
	.st1{fill:url(#SVGID_1_);}
</style>
<g class="st0">
	<g>
		
			<linearGradient id="SVGID_1_" gradientUnits="userSpaceOnUse" x1="245.75" y1="392.2" x2="245.75" y2="130.1313" gradientTransform="matrix(1 0 0 -1 0 482.4)">
			<stop  offset="0" style="stop-color:#FFFFFF;stop-opacity:0.3"/>
			<stop  offset="1" style="stop-color:#FFFFFF;stop-opacity:0.8"/>
		</linearGradient>
		<path class="st1" d="M245.7,0C110.1,0,0,110,0,245.7C0,317,30.5,381.3,79.2,426.4h333.1c48.7-44.9,79.2-109.4,79.2-180.7
			C491.5,110,381.5,0,245.7,0z M289.8,227.4c-2.8,0.6-6,1.4-8.1,2c1.1-0.6,2.2-1.6,3-2.2c1.8-1.6,3.4-4.5,4.2-5.9
			C289.2,223.3,289.6,225.3,289.8,227.4z M263.8,212.3c-0.6,0.6-1.1,0.6-1.1,0.6c0.2-0.6,1.7-1.7,1.7-1.7c-0.5,0.2-1.1,0.9-1.6,1.3
			c-0.5,0.5-0.9,0.2-0.9,0.2c0.5-1.1,2.4-2.2,2.4-2.2c-1.1,0.5-2.7,1.7-2.8,2.2c0-0.2,0-0.2,0-0.5c1.1-1.7,2.4-2.7,2.4-2.7
			c-0.9,0.5-1.9,1.7-2.4,2.4v-1.1c-0.2-2.7-0.5-7.5-1.1-11.2c-0.6-4.7-2.2-11.9-4.7-9.6c-2.5,2.3-8.5,11.2-11.2,22l-3.3,0.5l0.2-0.6
			l-1.1,0.6l-5,2.2c0,0-3.8-8.6-7.4-13.5c-3.8-4.6-8-6.1-10.4-2.7c-2.4,3.3-3.8,13.2-3,20.9c0.6,7.5,2.8,14.6,3.8,15.9
			c0,0,0.2,4.6,2.4,10.4c2.2,5.8,6.8,12.6,8.6,15.9s1.7,5.7,1.3,6.8c-0.5,1.1-8.6,14.8-10.4,18.7c-1.7,3.9-4.6,14.6-4.6,14.9
			s-1.1,1.6-2.8,3.8c0,0-22,27.8-24.2,40.9l-1.9,13c0,0-4.1,14.9-3.3,26.2c0.9,11.3,1.3,14.6,1.3,14.6s-6.8,0.9-8.3,7.2
			c-1.6,6.9-1.6,6.8-0.2,9.6h-1.5c-1.3,0.6-2.8,1.3-4.6,1.7c-7.4,1.9-14.3,5.7-22.2,5.8c-7.9,0.2-13,0.5-14.3-1.6
			c0,0-3.3-0.6-2.4-3.9c0.6-3.3,3.3-7.2,5.2-8.6c1.1-0.9,3.9-1.1,7.2-1.6c-7.5-1.9-16-5.2-26.2-11.3c-20-11.8-34.6-35.2-34.6-35.2
			l0.9-0.5l-0.9-0.6l0.5-0.5l-1.3-0.5c0,0,5-2.8,9-2.4c4.1,0.5,6.6,1.6,16.8,10.8c10.4,9.6,17,13.5,31.7,21.4
			c6.9,3.8,13.2,4.7,18.2,5.2c-0.6-1.7-1.1-3.5-1.3-4.4c-0.9-3-3.9-8.3-5.5-10.2s-3.8-19.8-3.9-23.1c-0.2-3.3,3-10.7,3.8-12.1
			c0.6-1.6,3-11.2,8.5-21.1c5.5-9.9,17.6-7.4,17.6-7.4s1.7-1.7,3-4.7c1.3-2.8,1.6-11.3,0-16.5c-1.7-5.2-1.6-17.4-1.3-26.2
			c0.2-8.6,7.5-33,7.5-33s-0.2-3.9-0.6-8c-0.6-4.1,4.7-19.2,6.8-27c1.9-7.9,7.9-11.5,9.7-15.2c1.9-3.8,1.6-21.1,1.6-21.1
			c0.2-4.4-0.2-6.3-0.6-7.5c-0.6-0.5-0.9-0.9-0.9-0.9s-0.5,1.9-0.5,3.8s0,8.6-0.6,11.5c-0.5,2.8-3.5,6.3-6.3,7.5
			c-2.7,1.3-21.4-13.5-22.8-15.4c-1.6-1.9-5.8-6.9-3.9-12.4c1.9-5.5,3.5-5.7,5.2-9c1.9-3.3,5.2-14.3,6.8-17.1s1.9-3.9,3.9-4.7
			c2.2-0.9,6.3-1.9,9.7-5c3.3-3,8.5-13.7,17-20.3s19.3-8.3,20.6-8.6c1.3-0.5,1.3-1.3,1.3-1.3c1.6-3.3,12.1-3.3,18.7-2.8
			c6.8,0.5,8.5,1.9,8.5,1.9s5.2,1.7,7.4,2.7c2.2,0.9,1.7,2.8,2.2,6.6c0.5,3.5,0,9.3-0.9,13.5c-0.6,4.4,0.6,7.5,1.3,10.7
			c0.6,3,0.9,5.8-0.5,6.6c-1.1,0.6-3.3-0.2-5.8-4.4s-3.9-12.9-3.9-12.6c0,0.5,0.9,3.9,0.6,6.8s1.3,7.2,1.6,8.3
			c0.2,1.1,1.3,2.2,1.3,2.2c1.1,0.9,3.5,4.6,3.8,5.7c0.2,1.1,1.6,4.1,2.4,5.2c0.9,1.1,2.4,3.5,3.8,7.4c1.3,3.9,2.4,9.3,2.8,12.1
			c0.5,3-0.5,4.4-2.2,5.2c-1.7,1.1-4.6,0-4.6,0c-0.9,1.7-3,4.1-7.5,6.9c-1.1,0.6-2.2,1.1-3.5,1.6l1.6,11.3l8,5.8
			c0,0,6.6,6.8,14.8,17.1c3.3,4.1,5.5,10.4,6.8,17.7c-0.7,1.1-2.2,3.4-4,5.1c-1.1,1.1-2.8,2.2-4.4,3c-0.9,0.2-1.3,0.5-1.3,0.5
			s-0.9,0.2-1.6,0.6c-0.2-0.2,0-0.5,0-0.5c0-0.6-0.9-1.3-1.6-1.7h0.2c0,0,6.6-3,8.3-6.1c0,0-2.7,3.3-8.5,5.8h-0.2
			c-0.6-0.5-1.7-0.9-1.7-1.3s-0.6-2.4-1.3-3c-0.6-0.5-1.7-3.9-2.2-5.2c-0.5-1.3-1.9-1.6-2.8-1.9c-0.9-0.5-2.4-2.2-2.7-2.8
			c0-0.5-1.6-0.9-1.9-0.9c0.2-0.3,0.4-0.5,0.7-0.7C264,212.2,263.9,212.2,263.8,212.3z M278.6,231c-0.1,0-0.2,0-0.3,0
			C278.4,231,278.4,231,278.6,231z M318.7,422c0,3.8-3.8,3.3-3.8,3.3s-2.4,1.1-5.5,0.6c-3-0.2-5.8-1.6-5.8-1.6s-2.7,0.5-6.3-0.5
			c-3.8-1.1-23.1-6.8-23.1-6.8h-1.5c2.2-0.5,8.6-4.7,9.7-5.5c1.6-1.3,2.2-3.8,1.1-5c-1.1-1.3-5.5-3-7.5-3.3l-1.9,0.2
			c0,0-1.9-1.6-2.8-5.5c-0.9-3.9-3-16-3.3-18.1c-0.2-2.2-1.1-7.9-1.1-9c0-1.3,0.9-9.3,1.1-10.7c0.2-2.4,0.5-11.3,0.9-15.4
			c0,0-0.9-1.9,1.6-6.8c0.2-0.5,0.5-0.9,0.6-1.3c0.9-1.7,1.6-3.3,1.9-4.6c0,0,0.5,1.1,0.6,1.7v-2.2c-0.2-0.5,0-0.2,0-0.2
			s0.6,1.9,1.1,2.2c0,0-0.9-1.9-0.6-2.8c0.2-0.9,0.5-1.6,0.5-1.6s0,1.7,0.2,2.2c0,0,0.5-2.4,0.2-3.5c0,0,0.6,0.9,1.1,1.3
			c0-0.5,0.2-2.4,0.5-3.3c0.2-0.9,0.5-1.1,0.5-1.1l0.5,0.9c0,0-0.2-1.9,0-2.7s1.3-5,1.6-6.3c0.2-1.3,1.1-9.7-1.9-15.9
			c-3-6.1-10.4-21.4-11.5-25.3c-1.3-3.9-2.4-7.4-1.3-11.2c0.6-2.4,2.2-6.1,3.8-8.6c0.6-1.1,3.9-5,5.5-6.3c1.6-1.1,2.2-1.1,4.1-4.6
			c2.2-3.5,0-8,0-8l0.2-0.5c1.1-0.5,1.1-2.2,1.1-2.2s0,0,0-0.2c1.1,0.9,2.7,1.7,3.8,2.4c1.7,1.1,4.1,1.9,4.1,1.9s-2.4-1.1-3.8-1.7
			c-0.9-0.5-2.7-1.7-3.9-2.7c0.5-0.1,0.5-1.2,0.3-1.6c0.1,0,0.2,0,0.3,0c5.2,0.2,9.6,3.3,9.6,3.3c-3-2.8-9.6-3.8-9.6-3.8
			s-0.6,0-1.3,0c0-0.2,0-0.6-0.2-0.9c0.5-0.2,1.6-0.9,2.4-1.3c3.4-1.2,6.7-2,9.2-2.5c1.2,9.5,1.3,20.2,1.2,30
			c-0.5,16.3-6.6,27.2-9,30.5c-0.5,0.9-0.5,1.7-0.2,1.9c0.9,1.3,1.1,3.5,1.7,5.5c0.9,2.4,1.1,29.4,1.1,29.4
			c1.9,1.9,10.4,12.1,12.4,15.7c1.9,3.5,2.8,13,1.9,23.1c-0.6,6.9-9.6,23.1-14.9,30.6l0.5,9.3c1.9,1.3,5.7,3.3,9.3,3.5
			c5.5,0.2,16.3,0.5,19.6,5C316.9,416.4,319,419.2,318.7,422z M261.5,210.7c0-0.1,0.1-0.1,0.1-0.2
			C261.5,210.6,261.5,210.6,261.5,210.7z M264,212.2c0.4-0.2,0.8-0.4,0.9-0.5C264.7,211.7,264.3,211.9,264,212.2z M261.6,210.5
			c0.1-0.2,0.3-0.3,0.4-0.4C261.9,210.1,261.7,210.2,261.6,210.5z"/>
	</g>
</g>
</svg>
