<?xml version="1.0" encoding="utf-8"?>
<!-- Generator: Adobe Illustrator 18.1.1, SVG Export Plug-In . SVG Version: 6.00 Build 0)  -->
<svg version="1.1" id="Layer_1" xmlns="http://www.w3.org/2000/svg" xmlns:xlink="http://www.w3.org/1999/xlink" x="0px" y="0px"
	 viewBox="-1 94.8 612.2 671.9" enable-background="new -1 94.8 612.2 671.9" xml:space="preserve">
<g opacity="0.7">
	<g>
		<linearGradient id="SVGID_1_" gradientUnits="userSpaceOnUse" x1="311.0493" y1="185" x2="311.0493" y2="447.0687">
			<stop  offset="0" style="stop-color:#FFFFFF;stop-opacity:0.3"/>
			<stop  offset="1" style="stop-color:#FFFFFF;stop-opacity:0.8"/>
		</linearGradient>
		<path fill="url(#SVGID_1_)" d="M311,94.8c-135.6,0-245.7,110-245.7,245.7c0,71.3,30.5,135.6,79.2,180.7h333.1
			c48.7-44.9,79.2-109.4,79.2-180.7C556.8,204.8,446.8,94.8,311,94.8z M355.1,322.2c-2.8,0.6-6,1.4-8.1,2c1.1-0.6,2.2-1.6,3-2.2
			c1.8-1.6,3.4-4.5,4.2-5.9C354.5,318.1,354.9,320.1,355.1,322.2z M329.1,307.1c-0.6,0.6-1.1,0.6-1.1,0.6c0.2-0.6,1.7-1.7,1.7-1.7
			c-0.5,0.2-1.1,0.9-1.6,1.3c-0.5,0.5-0.9,0.2-0.9,0.2c0.5-1.1,2.4-2.2,2.4-2.2c-1.1,0.5-2.7,1.7-2.8,2.2c0-0.2,0-0.2,0-0.5
			c1.1-1.7,2.4-2.7,2.4-2.7c-0.9,0.5-1.9,1.7-2.4,2.4v-1.1c-0.2-2.7-0.5-7.5-1.1-11.2c-0.6-4.7-2.2-11.9-4.7-9.6s-8.5,11.2-11.2,22
			l-3.3,0.5l0.2-0.6l-1.1,0.6l-5,2.2c0,0-3.8-8.6-7.4-13.5c-3.8-4.6-8-6.1-10.4-2.7c-2.4,3.3-3.8,13.2-3,20.9
			c0.6,7.5,2.8,14.6,3.8,15.9c0,0,0.2,4.6,2.4,10.4c2.2,5.8,6.8,12.6,8.6,15.9s1.7,5.7,1.3,6.8c-0.5,1.1-8.6,14.8-10.4,18.7
			c-1.7,3.9-4.6,14.6-4.6,14.9s-1.1,1.6-2.8,3.8c0,0-22,27.8-24.2,40.9l-1.9,13c0,0-4.1,14.9-3.3,26.2c0.9,11.3,1.3,14.6,1.3,14.6
			s-6.8,0.9-8.3,7.2c-1.6,6.9-1.6,6.8-0.2,9.6h-1.5c-1.3,0.6-2.8,1.3-4.6,1.7c-7.4,1.9-14.3,5.7-22.2,5.8c-7.9,0.2-13,0.5-14.3-1.6
			c0,0-3.3-0.6-2.4-3.9c0.6-3.3,3.3-7.2,5.2-8.6c1.1-0.9,3.9-1.1,7.2-1.6c-7.5-1.9-16-5.2-26.2-11.3c-20-11.8-34.6-35.2-34.6-35.2
			l0.9-0.5l-0.9-0.6l0.5-0.5l-1.3-0.5c0,0,5-2.8,9-2.4c4.1,0.5,6.6,1.6,16.8,10.8c10.4,9.6,17,13.5,31.7,21.4
			c6.9,3.8,13.2,4.7,18.2,5.2c-0.6-1.7-1.1-3.5-1.3-4.4c-0.9-3-3.9-8.3-5.5-10.2c-1.6-1.9-3.8-19.8-3.9-23.1
			c-0.2-3.3,3-10.7,3.8-12.1c0.6-1.6,3-11.2,8.5-21.1c5.5-9.9,17.6-7.4,17.6-7.4s1.7-1.7,3-4.7c1.3-2.8,1.6-11.3,0-16.5
			c-1.7-5.2-1.6-17.4-1.3-26.2c0.2-8.6,7.5-33,7.5-33s-0.2-3.9-0.6-8c-0.6-4.1,4.7-19.2,6.8-27c1.9-7.9,7.9-11.5,9.7-15.2
			c1.9-3.8,1.6-21.1,1.6-21.1c0.2-4.4-0.2-6.3-0.6-7.5c-0.6-0.5-0.9-0.9-0.9-0.9s-0.5,1.9-0.5,3.8c0,1.9,0,8.6-0.6,11.5
			c-0.5,2.8-3.5,6.3-6.3,7.5c-2.7,1.3-21.4-13.5-22.8-15.4c-1.6-1.9-5.8-6.9-3.9-12.4c1.9-5.5,3.5-5.7,5.2-9
			c1.9-3.3,5.2-14.3,6.8-17.1c1.6-2.8,1.9-3.9,3.9-4.7c2.2-0.9,6.3-1.9,9.7-5c3.3-3,8.5-13.7,17-20.3c8.5-6.6,19.3-8.3,20.6-8.6
			c1.3-0.5,1.3-1.3,1.3-1.3c1.6-3.3,12.1-3.3,18.7-2.8c6.8,0.5,8.5,1.9,8.5,1.9s5.2,1.7,7.4,2.7c2.2,0.9,1.7,2.8,2.2,6.6
			c0.5,3.5,0,9.3-0.9,13.5c-0.6,4.4,0.6,7.5,1.3,10.7c0.6,3,0.9,5.8-0.5,6.6c-1.1,0.6-3.3-0.2-5.8-4.4c-2.5-4.2-3.9-12.9-3.9-12.6
			c0,0.5,0.9,3.9,0.6,6.8s1.3,7.2,1.6,8.3c0.2,1.1,1.3,2.2,1.3,2.2c1.1,0.9,3.5,4.6,3.8,5.7c0.2,1.1,1.6,4.1,2.4,5.2
			c0.9,1.1,2.4,3.5,3.8,7.4c1.3,3.9,2.4,9.3,2.8,12.1c0.5,3-0.5,4.4-2.2,5.2c-1.7,1.1-4.6,0-4.6,0c-0.9,1.7-3,4.1-7.5,6.9
			c-1.1,0.6-2.2,1.1-3.5,1.6l1.6,11.3l8,5.8c0,0,6.6,6.8,14.8,17.1c3.3,4.1,5.5,10.4,6.8,17.7c-0.7,1.1-2.2,3.4-4,5.1
			c-1.1,1.1-2.8,2.2-4.4,3c-0.9,0.2-1.3,0.5-1.3,0.5s-0.9,0.2-1.6,0.6c-0.2-0.2,0-0.5,0-0.5c0-0.6-0.9-1.3-1.6-1.7h0.2
			c0,0,6.6-3,8.3-6.1c0,0-2.7,3.3-8.5,5.8h-0.2c-0.6-0.5-1.7-0.9-1.7-1.3s-0.6-2.4-1.3-3c-0.6-0.5-1.7-3.9-2.2-5.2
			c-0.5-1.3-1.9-1.6-2.8-1.9c-0.9-0.5-2.4-2.2-2.7-2.8c0-0.5-1.6-0.9-1.9-0.9c0.2-0.3,0.4-0.5,0.7-0.7
			C329.3,307,329.2,307,329.1,307.1z M343.9,325.8c-0.1,0-0.2,0-0.3,0C343.7,325.8,343.7,325.8,343.9,325.8z M384,516.8
			c0,3.8-3.8,3.3-3.8,3.3s-2.4,1.1-5.5,0.6c-3-0.2-5.8-1.6-5.8-1.6s-2.7,0.5-6.3-0.5c-3.8-1.1-23.1-6.8-23.1-6.8H338
			c2.2-0.5,8.6-4.7,9.7-5.5c1.6-1.3,2.2-3.8,1.1-5c-1.1-1.3-5.5-3-7.5-3.3l-1.9,0.2c0,0-1.9-1.6-2.8-5.5c-0.9-3.9-3-16-3.3-18.1
			c-0.2-2.2-1.1-7.9-1.1-9c0-1.3,0.9-9.3,1.1-10.7c0.2-2.4,0.5-11.3,0.9-15.4c0,0-0.9-1.9,1.6-6.8c0.2-0.5,0.5-0.9,0.6-1.3
			c0.9-1.7,1.6-3.3,1.9-4.6c0,0,0.5,1.1,0.6,1.7v-2.2c-0.2-0.5,0-0.2,0-0.2s0.6,1.9,1.1,2.2c0,0-0.9-1.9-0.6-2.8
			c0.2-0.9,0.5-1.6,0.5-1.6s0,1.7,0.2,2.2c0,0,0.5-2.4,0.2-3.5c0,0,0.6,0.9,1.1,1.3c0-0.5,0.2-2.4,0.5-3.3c0.2-0.9,0.5-1.1,0.5-1.1
			l0.5,0.9c0,0-0.2-1.9,0-2.7c0.2-0.8,1.3-5,1.6-6.3c0.2-1.3,1.1-9.7-1.9-15.9c-3-6.1-10.4-21.4-11.5-25.3
			c-1.3-3.9-2.4-7.4-1.3-11.2c0.6-2.4,2.2-6.1,3.8-8.6c0.6-1.1,3.9-5,5.5-6.3c1.6-1.1,2.2-1.1,4.1-4.6c2.2-3.5,0-8,0-8l0.2-0.5
			c1.1-0.5,1.1-2.2,1.1-2.2s0,0,0-0.2c1.1,0.9,2.7,1.7,3.8,2.4c1.7,1.1,4.1,1.9,4.1,1.9s-2.4-1.1-3.8-1.7c-0.9-0.5-2.7-1.7-3.9-2.7
			c0.5-0.1,0.5-1.2,0.3-1.6c0.1,0,0.2,0,0.3,0c5.2,0.2,9.6,3.3,9.6,3.3c-3-2.8-9.6-3.8-9.6-3.8s-0.6,0-1.3,0c0-0.2,0-0.6-0.2-0.9
			c0.5-0.2,1.6-0.9,2.4-1.3c3.4-1.2,6.7-2,9.2-2.5c1.2,9.5,1.3,20.2,1.2,30c-0.5,16.3-6.6,27.2-9,30.5c-0.5,0.9-0.5,1.7-0.2,1.9
			c0.9,1.3,1.1,3.5,1.7,5.5c0.9,2.4,1.1,29.4,1.1,29.4c1.9,1.9,10.4,12.1,12.4,15.7c1.9,3.5,2.8,13,1.9,23.1
			c-0.6,6.9-9.6,23.1-14.9,30.6l0.5,9.3c1.9,1.3,5.7,3.3,9.3,3.5c5.5,0.2,16.3,0.5,19.6,5C382.2,511.2,384.3,514,384,516.8z
			 M326.8,305.5c0-0.1,0.1-0.1,0.1-0.2C326.8,305.4,326.8,305.4,326.8,305.5z M329.3,307c0.4-0.2,0.8-0.4,0.9-0.5
			C330,306.5,329.6,306.7,329.3,307z M326.9,305.3c0.1-0.2,0.3-0.3,0.4-0.4C327.2,304.9,327,305,326.9,305.3z"/>
	</g>
</g>
<g>
	<path fill="#553769" d="M128.9,672.4h-22l-21.1-74c-0.9-3.3-2-7.9-3.5-14c-1.4-6.1-2.2-10.4-2.5-12.7c-0.6,3.6-1.4,8.3-2.8,14.1
		c-1.4,5.8-2.4,10.1-3.1,12.9l-20.6,73.7h-22l-16-62.1L-1,548.4h20.7l17.8,72.3c2.8,11.6,4.7,21.8,6,30.8c0.6-4.9,1.6-10.2,2.8-16.2
		s2.4-10.7,3.5-14.5L70,548.4h20.1l20.7,72.9c2,6.8,4.1,16.8,6.3,30.2c0.8-8.2,2.8-18.4,6.1-31l17.6-72.1h20.6L128.9,672.4z"/>
	<path fill="#553769" d="M165.1,553.8c0-3.6,0.9-6.3,3-8.2c1.9-1.9,4.7-2.8,8.3-2.8c3.5,0,6.3,0.9,8.2,2.8c1.9,1.9,3,4.7,3,8.2
		c0,3.5-0.9,6.1-3,8c-1.9,1.9-4.7,3-8.2,3c-3.6,0-6.4-0.9-8.3-3C166,559.7,165.1,557.1,165.1,553.8z M186.3,672.4h-20v-94h20V672.4z
		"/>
	<path fill="#553769" d="M267.4,645.7c0,9.1-3.3,16.2-10.1,21.1c-6.8,4.9-16.2,7.4-28.8,7.4s-22.6-1.9-30.2-5.7v-17.3
		c11,5,21.4,7.7,30.8,7.7c12.3,0,18.4-3.8,18.4-11.2c0-2.4-0.6-4.4-2-6c-1.4-1.6-3.6-3.3-6.8-4.9c-3.1-1.7-7.4-3.6-13-5.8
		c-10.8-4.2-18.1-8.3-22-12.6c-3.8-4.2-5.7-9.6-5.7-16.3c0-8,3.3-14.3,9.7-18.7c6.4-4.4,15.2-6.6,26.4-6.6c11,0,21.5,2.2,31.3,6.8
		l-6.4,15.1c-10.1-4.2-18.7-6.3-25.6-6.3c-10.5,0-15.7,3-15.7,9c0,3,1.4,5.5,4.1,7.5c2.7,2,8.8,4.9,17.9,8.3c7.7,3,13.4,5.8,17,8.2
		c3.5,2.5,6.1,5.3,7.9,8.6C266.6,637.4,267.4,641.1,267.4,645.7z"/>
	<path fill="#553769" d="M313.7,674.1c-11.8,0-20.9-4.2-27.5-12.7c-6.6-8.5-9.9-20.4-9.9-35.7c0-15.4,3.3-27.3,9.9-36
		c6.6-8.6,15.9-12.9,27.7-12.9c12.4,0,21.7,4.6,28.1,13.7h0.9c-0.9-6.8-1.4-12.1-1.4-16v-34.3h20.1v132.1h-15.6l-3.5-12.3h-0.9
		C335.4,669.4,326,674.1,313.7,674.1z M319.1,658.1c8.2,0,14.1-2.4,17.9-6.9c3.8-4.6,5.7-12.1,5.8-22.5v-2.8
		c0-11.8-1.9-20.3-5.8-25.1c-3.9-5-9.9-7.5-18.1-7.5c-7.1,0-12.4,2.8-16.2,8.5c-3.8,5.7-5.7,13.8-5.7,24.4c0,10.4,1.9,18.4,5.5,23.9
		C306.2,655.3,311.7,658.1,319.1,658.1z"/>
	<path fill="#553769" d="M459.7,625.4c0,15.4-3.9,27.3-11.8,36s-18.9,12.9-32.8,12.9c-8.8,0-16.5-2-23.3-6
		c-6.8-3.9-11.9-9.6-15.6-17.1c-3.6-7.4-5.5-16-5.5-25.8c0-15.2,3.9-27.2,11.8-35.7c7.9-8.5,18.9-12.9,33-12.9
		c13.5,0,24.4,4.4,32.2,13C455.8,598.7,459.7,610.5,459.7,625.4z M391.3,625.4c0,21.7,8,32.5,24,32.5c15.9,0,23.7-10.8,23.7-32.5
		c0-21.5-8-32.2-23.9-32.2c-8.3,0-14.5,2.8-18.2,8.3C393.2,607,391.3,615,391.3,625.4z"/>
	<path fill="#553769" d="M551.3,672.4h-20.1v-57.8c0-7.2-1.4-12.6-4.1-16c-2.7-3.6-6.9-5.3-12.7-5.3c-7.7,0-13.4,2.5-17,7.5
		c-3.6,5-5.3,13.4-5.3,25v46.8h-20v-94h15.6l2.8,12.3h0.9c2.7-4.4,6.4-7.9,11.3-10.4c5-2.4,10.4-3.6,16.3-3.6
		c14.5,0,24,4.9,28.8,14.8h1.4c2.8-4.7,6.6-8.3,11.8-10.8c5-2.7,10.8-3.9,17.3-3.9c11.2,0,19.3,2.8,24.5,8.5s7.7,14.3,7.7,25.9v61.3
		h-20v-58c0-7.2-1.4-12.6-4.1-16c-2.7-3.6-7.1-5.3-12.7-5.3c-7.7,0-13.4,2.4-17,7.2s-5.3,12.3-5.3,22.3v49.7H551.3z"/>
</g>
<g opacity="0.57">
	<path fill="#FFFFFF" d="M44.7,689.2c8.2,0,14.5,2,19,6.3c4.6,4.2,6.8,9.7,6.8,16.7c0,6.9-2.2,12.4-6.8,16.7
		c-4.6,4.2-10.8,6.3-19,6.3H28.5v22.5L37,759v6.6H9.7V759l8.5-1.4v-60.2L9.7,696v-6.6h8.5h26.6V689.2z M28.5,726.9h16.2
		c5.2,0,9.1-1.4,11.6-4.2c2.5-2.8,3.9-6.3,3.9-10.5c0-4.2-1.3-7.7-3.9-10.5c-2.5-2.8-6.4-4.2-11.6-4.2H28.5V726.9z"/>
	<path fill="#FFFFFF" d="M97.7,766.7c-7.9,0-14.1-2.7-18.9-7.9c-4.7-5.3-7.1-12.1-7.1-20.4V736c0-8,2.4-14.8,7.2-20.1
		c4.9-5.3,10.5-8,17.1-8c7.7,0,13.4,2.4,17.3,6.9s6,10.8,6,18.5v6.4H82.6l-0.2,0.3c0.2,5.5,1.4,9.9,4.1,13.5
		c2.7,3.5,6.4,5.3,11.2,5.3c3.5,0,6.6-0.5,9.3-1.6c2.7-0.9,4.9-2.4,6.9-4.1l4.1,6.8c-2,1.9-4.7,3.6-8,5
		C106.5,766,102.4,766.7,97.7,766.7z M96.1,715.9c-3.5,0-6.4,1.4-8.8,4.4c-2.5,3-3.9,6.6-4.6,11l0.2,0.3h26.2v-1.4
		c0-4.1-1.1-7.4-3.3-10.2C103.6,717.3,100.3,715.9,96.1,715.9z"/>
	<path fill="#FFFFFF" d="M141.2,695.2v13.7h10.7v7.7h-10.7V751c0,2.7,0.6,4.6,1.7,5.7c1.1,1.1,2.5,1.6,4.4,1.6c0.9,0,1.9,0,3.1-0.3
		c1.1-0.2,2-0.3,2.8-0.5l1.4,7.1c-0.9,0.6-2.4,1.1-4.2,1.6c-1.9,0.5-3.8,0.6-5.7,0.6c-4.2,0-7.5-1.3-10.1-3.8
		c-2.5-2.5-3.8-6.4-3.8-11.9v-34.4h-9v-7.7h9v-13.7H141.2z"/>
	<path fill="#FFFFFF" d="M254.3,704.4H254l-24.7,61.3h-6.9l-24.7-61.1h-0.3l1.1,31v22l8.5,1.4v6.6h-27.5V759l8.5-1.4v-60.2l-8.5-1.4
		v-6.6h8.5h13.2l24.4,62.1h0.3l24.4-62.1h21.8v6.6l-8.5,1.4v60.2l8.5,1.4v6.6h-27.5V759l8.5-1.4v-22.2L254.3,704.4z"/>
	<path fill="#FFFFFF" d="M302.3,766.7c-7.9,0-14.1-2.7-18.9-7.9c-4.7-5.3-7.1-12.1-7.1-20.4V736c0-8,2.4-14.8,7.2-20.1
		c4.9-5.3,10.5-8,17.1-8c7.7,0,13.4,2.4,17.3,6.9c3.9,4.6,6,10.8,6,18.5v6.4h-36.8l-0.2,0.3c0.2,5.5,1.4,9.9,4.1,13.5
		c2.7,3.5,6.4,5.3,11.2,5.3c3.5,0,6.6-0.5,9.3-1.6c2.7-0.9,4.9-2.4,6.9-4.1l4.1,6.8c-2,1.9-4.7,3.6-8,5
		C310.9,766,307,766.7,302.3,766.7z M300.7,715.9c-3.5,0-6.4,1.4-8.8,4.4c-2.5,3-3.9,6.6-4.6,11l0.2,0.3h26.2v-1.4
		c0-4.1-1.1-7.4-3.3-10.2C308.1,717.3,304.9,715.9,300.7,715.9z"/>
	<path fill="#FFFFFF" d="M365.9,758.8c-1.9,2.5-4.1,4.6-6.8,5.8c-2.7,1.3-5.8,2-9.3,2c-6.9,0-12.4-2.5-16.2-7.5
		c-3.9-5-5.8-11.6-5.8-19.8v-1.1c0-9.1,1.9-16.5,5.8-22.2s9.4-8.3,16.3-8.3c3.3,0,6.3,0.6,9,1.9c2.5,1.3,4.7,3,6.6,5.3v-23.1
		l-8.5-1.4v-6.8h8.5h10.4v73.8l8.5,1.4v6.6h-17.6L365.9,758.8z M338.1,739.3c0,5.7,1.1,10.2,3.5,13.8c2.4,3.5,6,5.2,10.8,5.2
		c3.1,0,5.7-0.6,7.7-2c2-1.4,3.8-3.3,5.2-6v-26.4c-1.3-2.4-3-4.2-5.2-5.7c-2.2-1.4-4.7-2-7.7-2c-4.9,0-8.6,2-11,6.1
		c-2.4,4.1-3.6,9.4-3.6,16v0.9H338.1z"/>
	<path fill="#FFFFFF" d="M387.9,759l8.5-1.4V717l-8.5-1.4v-6.8h18.9v48.7l8.5,1.4v6.6h-27.5V759H387.9z M406.7,694.4h-10.4v-10.7
		h10.4V694.4z"/>
	<path fill="#FFFFFF" d="M442.2,758.7c3.5,0,6.4-1.1,9.1-3.1s3.9-4.7,3.9-7.9h9.3l0.2,0.3c0.2,4.9-2,9.3-6.6,13
		c-4.6,3.8-9.7,5.7-15.9,5.7c-8.3,0-14.6-2.7-18.9-8c-4.4-5.3-6.6-12.1-6.6-20.3v-2.2c0-8,2.2-14.8,6.6-20.3
		c4.4-5.3,10.7-8.2,18.9-8.2c4.6,0,8.6,0.8,12.3,2.2c3.6,1.6,6.6,3.6,9,6.1l0.5,12.6h-8.3l-2.2-9c-1.3-1.3-2.8-2.2-4.7-2.8
		c-1.9-0.8-4.1-1.1-6.4-1.1c-5.5,0-9.3,1.9-11.6,5.8s-3.5,8.6-3.5,14.3v2.2c0,5.8,1.1,10.7,3.5,14.5
		C432.8,756.8,436.7,758.7,442.2,758.7z"/>
	<path fill="#FFFFFF" d="M468.2,759l8.5-1.4V717l-8.5-1.4v-6.8H487v48.7l8.5,1.4v6.6h-27.3V759z M487,694.4h-10.4v-10.7H487V694.4z"
		/>
	<path fill="#FFFFFF" d="M497.7,759l8.5-1.4V717l-8.5-1.4v-6.8h17.8l0.8,8.5c1.9-3,4.2-5.3,7.1-7.1c2.8-1.7,6.1-2.5,9.7-2.5
		c6.1,0,10.8,1.7,14.3,5.3c3.3,3.6,5,9.1,5,16.7v27.8l8.5,1.4v6.6h-27.5V759l8.5-1.4v-27.5c0-5-0.9-8.5-3-10.7c-2-2-5-3.1-9.1-3.1
		c-3,0-5.7,0.8-7.9,2.2c-2.4,1.4-4.1,3.5-5.5,5.8v33.3l8.5,1.4v6.6h-27.5V759H497.7z"/>
	<path fill="#FFFFFF" d="M589.5,766.7c-7.9,0-14.1-2.7-18.9-7.9c-4.7-5.3-7.1-12.1-7.1-20.4V736c0-8,2.4-14.8,7.2-20.1
		c4.9-5.3,10.5-8,17.1-8c7.7,0,13.4,2.4,17.3,6.9s6,10.8,6,18.5v6.4h-36.8l-0.2,0.3c0.2,5.5,1.4,9.9,4.1,13.5
		c2.7,3.5,6.4,5.3,11.2,5.3c3.5,0,6.6-0.5,9.3-1.6c2.7-0.9,4.9-2.4,6.9-4.1l4.1,6.8c-2,1.9-4.7,3.6-8,5
		C598.1,766,594.2,766.7,589.5,766.7z M587.9,715.9c-3.5,0-6.4,1.4-8.8,4.4c-2.5,3-3.9,6.6-4.6,11l0.2,0.3h26.2v-1.4
		c0-4.1-1.1-7.4-3.3-10.2C595.4,717.3,592.1,715.9,587.9,715.9z"/>
</g>
</svg>
